<?xml version="1.0" standalone="no"?>
<!DOCTYPE svg PUBLIC "-//W3C//DTD SVG 20010904//EN"
 "http://www.w3.org/TR/2001/REC-SVG-20010904/DTD/svg10.dtd">
<svg version="1.0" xmlns="http://www.w3.org/2000/svg"
 width="1080.000000pt" height="720.000000pt" viewBox="0 0 1080.000000 720.000000"
 preserveAspectRatio="xMidYMid meet">

<g transform="translate(0.000000,720.000000) scale(0.100000,-0.100000)"
fill="#000000" stroke="none">
<path d="M4345 4945 c-60 -7 -153 -20 -205 -30 -52 -9 -135 -23 -185 -32 -140
-24 -513 -135 -1139 -339 l-258 -84 -372 0 c-222 0 -386 -4 -408 -10 -50 -14
-88 -61 -88 -109 0 -43 10 -58 117 -177 86 -96 92 -122 41 -171 -18 -16 -42
-36 -54 -44 -61 -40 -126 -106 -146 -147 -23 -50 -30 -106 -44 -389 -7 -133
-6 -146 16 -205 53 -147 191 -300 337 -376 74 -38 250 -99 259 -89 2 2 -2 33
-11 68 -22 94 -20 314 4 404 83 315 288 525 601 616 94 27 297 27 406 -2 176
-45 331 -145 442 -284 89 -111 136 -213 172 -374 17 -78 18 -104 10 -218 -6
-92 -16 -151 -34 -204 -14 -40 -23 -75 -21 -77 4 -4 2965 -8 2965 -5 0 2 -12
47 -26 100 -82 305 -9 614 195 827 170 176 355 256 595 256 173 0 285 -30 428
-112 191 -109 336 -326 387 -576 26 -125 4 -356 -44 -474 -6 -16 1 -18 76 -18
98 0 384 24 483 40 89 14 160 45 191 82 20 23 25 41 25 82 0 63 -14 84 -94
141 -30 22 -56 43 -56 47 0 4 23 78 51 165 69 216 66 270 -17 362 -68 76 -268
197 -454 276 -218 93 -614 215 -900 279 -41 10 -93 21 -115 26 -125 30 -509
92 -740 120 -266 32 -250 28 -380 105 -371 221 -622 359 -754 414 -109 46
-284 97 -381 111 -262 40 -651 51 -875 25z m889 -246 c172 -45 368 -160 679
-401 70 -54 127 -103 127 -108 0 -6 -325 -10 -874 -10 l-873 0 -56 143 c-75
190 -117 310 -112 315 5 6 125 31 210 44 165 25 326 35 564 37 229 1 263 -1
335 -20z m-1242 -291 c30 -106 59 -201 63 -210 6 -16 1 -18 -41 -18 -137 0
-529 63 -689 111 -38 11 -87 24 -108 28 -21 5 -40 11 -43 13 -14 15 238 124
411 179 98 32 306 87 331 88 18 1 26 -20 76 -191z m4423 -680 c144 -49 267
-134 305 -209 11 -21 20 -40 20 -41 0 -2 -52 1 -115 7 l-115 10 -42 41 c-63
59 -178 185 -190 207 -10 19 -8 20 33 13 24 -4 71 -16 104 -28z m-3874 -528
c30 -5 93 -14 142 -20 88 -10 205 -24 332 -40 39 -4 160 -20 270 -35 110 -14
232 -30 270 -35 39 -5 124 -16 190 -25 66 -9 149 -20 185 -24 173 -23 366 -55
374 -63 29 -24 -1027 3 -1400 37 -164 15 -181 19 -233 47 -68 38 -203 131
-221 153 -11 13 -9 15 12 15 13 0 49 -4 79 -10z"/>
<path d="M2890 3661 c-220 -42 -410 -217 -487 -451 -14 -43 -18 -86 -18 -200
1 -157 14 -212 75 -323 66 -119 214 -246 338 -289 58 -20 86 -23 207 -22 125
0 148 3 213 26 241 86 397 277 432 531 22 157 -14 306 -107 451 -84 130 -193
213 -337 257 -70 22 -247 33 -316 20z m283 -316 c119 -59 189 -172 195 -314 3
-49 -1 -101 -8 -125 -43 -145 -196 -256 -351 -256 -127 0 -249 82 -311 208
-30 61 -33 74 -33 162 0 84 3 102 29 158 34 74 119 158 187 184 33 13 67 17
139 15 81 -3 103 -7 153 -32z"/>
<path d="M7415 3660 c-144 -14 -305 -111 -400 -240 -154 -210 -177 -484 -58
-713 53 -103 173 -222 273 -269 109 -53 151 -62 290 -62 141 -1 182 9 312 76
142 73 257 228 305 408 27 102 23 254 -10 358 -39 125 -64 168 -147 252 -151
154 -326 213 -565 190z m250 -309 c54 -24 137 -98 162 -145 48 -91 58 -236 22
-331 -58 -156 -267 -259 -430 -212 -160 47 -250 176 -253 362 -1 77 3 98 25
145 44 95 114 158 217 197 56 20 195 12 257 -16z"/>
</g>
</svg>
